# Generated by DDD/Penguin: https://dragonite.itch.io/penguin

mtllib mod_her.mtl

usemtl mod_her_Material
g mod_her_Material
v -1 -1.25 -9.5
vt 0.4375 0.75
vn 1 0 0
v -1 -1.25 -6.125
vt 0.4375 0.625
vn 1 0 0
v -1 -2.5 -9.5
vt 0.5 0.75
vn 1 0 0
f 1/1/1 2/2/2 3/3/3

v -1 -1.25 -6.125
vt 0.4375 0.625
vn 1 0 0
v -1 -1.25 -9.5
vt 0.4375 0.75
vn 1 0 0
v -1 0 -6.125
vt 0.375 0.625
vn 1 0 0
f 4/4/4 5/5/5 6/6/6

v -1 0 -6.125
vt 0.375 0.625
vn 1 0 0
v -1 0 -2.75
vt 0.375 0.5
vn 1 0 0
v -1 -1.25 -6.125
vt 0.4375 0.625
vn 1 0 0
f 7/7/7 8/8/8 9/9/9

v -1 0 -9.5
vt 0.375 0.75
vn 1 0 0
v -1 0 -6.125
vt 0.375 0.625
vn 1 0 0
v -1 -1.25 -9.5
vt 0.4375 0.75
vn 1 0 0
f 10/10/10 11/11/11 12/12/12

v -1 0 -2.75
vt 0.375 0.5
vn 1 0 0
v -1 0 -6.125
vt 0.375 0.625
vn 1 0 0
v -1 1.25 -2.75
vt 0.3125 0.5
vn 1 0 0
f 13/13/13 14/14/14 15/15/15

v -1 0 -6.125
vt 0.375 0.625
vn 1 0 0
v -1 0 -9.5
vt 0.375 0.75
vn 1 0 0
v -1 1.25 -6.125
vt 0.3125 0.625
vn 1 0 0
f 16/16/16 17/17/17 18/18/18

v -1 1.25 -2.75
vt 0.3125 0.5
vn 1 0 0
v -1 1.25 0.625
vt 0.3125 0.375
vn 1 0 0
v -1 0 -2.75
vt 0.375 0.5
vn 1 0 0
f 19/19/19 20/20/20 21/21/21

v -1 1.25 -6.125
vt 0.3125 0.625
vn 1 0 0
v -1 1.25 -2.75
vt 0.3125 0.5
vn 1 0 0
v -1 0 -6.125
vt 0.375 0.625
vn 1 0 0
f 22/22/22 23/23/23 24/24/24

v -1 1.25 -9.5
vt 0.3125 0.75
vn 1 0 0
v -1 1.25 -6.125
vt 0.3125 0.625
vn 1 0 0
v -1 0 -9.5
vt 0.375 0.75
vn 1 0 0
f 25/25/25 26/26/26 27/27/27

v -1 1.25 0.625
vt 0.3125 0.375
vn 1 0 0
v -1 1.25 -2.75
vt 0.3125 0.5
vn 1 0 0
v -1 2.5 0.625
vt 0.25 0.375
vn 1 0 0
f 28/28/28 29/29/29 30/30/30

v -1 1.25 -2.75
vt 0.3125 0.5
vn 1 0 0
v -1 1.25 -6.125
vt 0.3125 0.625
vn 1 0 0
v -1 2.5 -2.75
vt 0.25 0.5
vn 1 0 0
f 31/31/31 32/32/32 33/33/33

v -1 1.25 -6.125
vt 0.3125 0.625
vn 1 0 0
v -1 1.25 -9.5
vt 0.3125 0.75
vn 1 0 0
v -1 2.5 -6.125
vt 0.25 0.625
vn 1 0 0
f 34/34/34 35/35/35 36/36/36

v -1 2.5 0.625
vt 0.25 0.375
vn 1 0 0
v -1 2.5 4
vt 0.25 0.25
vn 1 0 0
v -1 1.25 0.625
vt 0.3125 0.375
vn 1 0 0
f 37/37/37 38/38/38 39/39/39

v -1 2.5 -2.75
vt 0.25 0.5
vn 1 0 0
v -1 2.5 0.625
vt 0.25 0.375
vn 1 0 0
v -1 1.25 -2.75
vt 0.3125 0.5
vn 1 0 0
f 40/40/40 41/41/41 42/42/42

v -1 2.5 -6.125
vt 0.25 0.625
vn 1 0 0
v -1 2.5 -2.75
vt 0.25 0.5
vn 1 0 0
v -1 1.25 -6.125
vt 0.3125 0.625
vn 1 0 0
f 43/43/43 44/44/44 45/45/45

v -1 2.5 -9.5
vt 0.25 0.75
vn 1 0 0
v -1 2.5 -6.125
vt 0.25 0.625
vn 1 0 0
v -1 1.25 -9.5
vt 0.3125 0.75
vn 1 0 0
f 46/46/46 47/47/47 48/48/48

v -1 1.25 4
vt 0.3125 0.25
vn 1 0 0
v -1 1.25 0.625
vt 0.3125 0.375
vn 1 0 0
v -1 2.5 4
vt 0.25 0.25
vn 1 0 0
f 49/49/49 50/50/50 51/51/51

v -1 1.25 0.625
vt 0.3125 0.375
vn 1 0 0
v -1 1.25 4
vt 0.3125 0.25
vn 1 0 0
v -1 0 0.625
vt 0.375 0.375
vn 1 0 0
f 52/52/52 53/53/53 54/54/54

v -1 0 0.625
vt 0.375 0.375
vn 1 0 0
v -1 0 -2.75
vt 0.375 0.5
vn 1 0 0
v -1 1.25 0.625
vt 0.3125 0.375
vn 1 0 0
f 55/55/55 56/56/56 57/57/57

v -1 0 4
vt 0.375 0.25
vn 1 0 0
v -1 0 0.625
vt 0.375 0.375
vn 1 0 0
v -1 1.25 4
vt 0.3125 0.25
vn 1 0 0
f 58/58/58 59/59/59 60/60/60

v -1 0 -2.75
vt 0.375 0.5
vn 1 0 0
v -1 0 0.625
vt 0.375 0.375
vn 1 0 0
v -1 -1.25 -2.75
vt 0.4375 0.5
vn 1 0 0
f 61/61/61 62/62/62 63/63/63

v -1 0 0.625
vt 0.375 0.375
vn 1 0 0
v -1 0 4
vt 0.375 0.25
vn 1 0 0
v -1 -1.25 0.625
vt 0.4375 0.375
vn 1 0 0
f 64/64/64 65/65/65 66/66/66

v -1 -1.25 -2.75
vt 0.4375 0.5
vn 1 0 0
v -1 -1.25 -6.125
vt 0.4375 0.625
vn 1 0 0
v -1 0 -2.75
vt 0.375 0.5
vn 1 0 0
f 67/67/67 68/68/68 69/69/69

v -1 -1.25 0.625
vt 0.4375 0.375
vn 1 0 0
v -1 -1.25 -2.75
vt 0.4375 0.5
vn 1 0 0
v -1 0 0.625
vt 0.375 0.375
vn 1 0 0
f 70/70/70 71/71/71 72/72/72

v -1 -1.25 4
vt 0.4375 0.25
vn 1 0 0
v -1 -1.25 0.625
vt 0.4375 0.375
vn 1 0 0
v -1 0 4
vt 0.375 0.25
vn 1 0 0
f 73/73/73 74/74/74 75/75/75

v -1 -1.25 -6.125
vt 0.4375 0.625
vn 1 0 0
v -1 -1.25 -2.75
vt 0.4375 0.5
vn 1 0 0
v -1 -2.5 -6.125
vt 0.5 0.625
vn 1 0 0
f 76/76/76 77/77/77 78/78/78

v -1 -1.25 -2.75
vt 0.4375 0.5
vn 1 0 0
v -1 -1.25 0.625
vt 0.4375 0.375
vn 1 0 0
v -1 -2.5 -2.75
vt 0.5 0.5
vn 1 0 0
f 79/79/79 80/80/80 81/81/81

v -1 -1.25 0.625
vt 0.4375 0.375
vn 1 0 0
v -1 -1.25 4
vt 0.4375 0.25
vn 1 0 0
v -1 -2.5 0.625
vt 0.5 0.375
vn 1 0 0
f 82/82/82 83/83/83 84/84/84

v -1 -2.5 -6.125
vt 0.5 0.625
vn 1 0 0
v -1 -2.5 -9.5
vt 0.5 0.75
vn 1 0 0
v -1 -1.25 -6.125
vt 0.4375 0.625
vn 1 0 0
f 85/85/85 86/86/86 87/87/87

v -1 -2.5 -2.75
vt 0.5 0.5
vn 1 0 0
v -1 -2.5 -6.125
vt 0.5 0.625
vn 1 0 0
v -1 -1.25 -2.75
vt 0.4375 0.5
vn 1 0 0
f 88/88/88 89/89/89 90/90/90

v -1 -2.5 0.625
vt 0.5 0.375
vn 1 0 0
v -1 -2.5 -2.75
vt 0.5 0.5
vn 1 0 0
v -1 -1.25 0.625
vt 0.4375 0.375
vn 1 0 0
f 91/91/91 92/92/92 93/93/93

v -1 -2.5 4
vt 0.5 0.25
vn 1 0 0
v -1 -2.5 0.625
vt 0.5 0.375
vn 1 0 0
v -1 -1.25 4
vt 0.4375 0.25
vn 1 0 0
f 94/94/94 95/95/95 96/96/96

v -1 -1.25 4
vt 0.4375 0.25
vn 1 0 0
v -1 -1.375 5.375
vt 0.4375 0.1875
vn 1 0 0
v -1 -2.5 4
vt 0.5 0.25
vn 1 0 0
f 97/97/97 98/98/98 99/99/99

v -1 -1.375 5.375
vt 0.4375 0.1875
vn 1 0 0
v -1 -1.25 4
vt 0.4375 0.25
vn 1 0 0
v -1 -0.125 5.375
vt 0.375 0.1875
vn 1 0 0
f 100/100/100 101/101/101 102/102/102

v -1 -0.125 5.375
vt 0.375 0.1875
vn 1 0 0
v -1 -0.25 6.75
vt 0.375 0.125
vn 1 0 0
v -1 -1.375 5.375
vt 0.4375 0.1875
vn 1 0 0
f 103/103/103 104/104/104 105/105/105

v -1 0 4
vt 0.375 0.25
vn 1 0 0
v -1 -0.125 5.375
vt 0.375 0.1875
vn 1 0 0
v -1 -1.25 4
vt 0.4375 0.25
vn 1 0 0
f 106/106/106 107/107/107 108/108/108

v -1 -0.25 6.75
vt 0.375 0.125
vn 1 0 0
v -1 -0.125 5.375
vt 0.375 0.1875
vn 1 0 0
v -1 1 6.75
vt 0.3125 0.125
vn 1 0 0
f 109/109/109 110/110/110 111/111/111

v -1 -0.125 5.375
vt 0.375 0.1875
vn 1 0 0
v -1 0 4
vt 0.375 0.25
vn 1 0 0
v -1 1.125 5.375
vt 0.3125 0.1875
vn 1 0 0
f 112/112/112 113/113/113 114/114/114

v -1 1 6.75
vt 0.3125 0.125
vn 0.9661999941 0 -0.2576999962
v -0.5 0.875 8.625
vt 0.3125 0.0625
vn 0.9661999941 0 -0.2576999962
v -1 -0.25 6.75
vt 0.375 0.125
vn 0.9661999941 0 -0.2576999962
f 115/115/115 116/116/116 117/117/117

v -1 1.125 5.375
vt 0.3125 0.1875
vn 1 0 0
v -1 1 6.75
vt 0.3125 0.125
vn 1 0 0
v -1 -0.125 5.375
vt 0.375 0.1875
vn 1 0 0
f 118/118/118 119/119/119 120/120/120

v -1 1.25 4
vt 0.3125 0.25
vn 1 0 0
v -1 1.125 5.375
vt 0.3125 0.1875
vn 1 0 0
v -1 0 4
vt 0.375 0.25
vn 1 0 0
f 121/121/121 122/122/122 123/123/123

v -0.5 0.875 8.625
vt 0.3125 0.0625
vn 0.959100008 -0.1050999984 -0.2628000081
v -1 1 6.75
vt 0.3125 0.125
vn 0.959100008 -0.1050999984 -0.2628000081
v -0.5 2.125 8.125
vt 0.25 0.0625
vn 0.959100008 -0.1050999984 -0.2628000081
f 124/124/124 125/125/125 126/126/126

v -1 1 6.75
vt 0.3125 0.125
vn 0.9279000163 -0.3711999953 -0.0337000005
v -1 1.125 5.375
vt 0.3125 0.1875
vn 0.9279000163 -0.3711999953 -0.0337000005
v -0.5 2.25 6.75
vt 0.25 0.125
vn 0.9279000163 -0.3711999953 -0.0337000005
f 127/127/127 128/128/128 129/129/129

v -1 1.125 5.375
vt 0.3125 0.1875
vn 0.9279000163 -0.3711999953 -0.0337000005
v -1 1.25 4
vt 0.3125 0.25
vn 0.9279000163 -0.3711999953 -0.0337000005
v -0.5 2.375 5.375
vt 0.25 0.1875
vn 0.9279000163 -0.3711999953 -0.0337000005
f 130/130/130 131/131/131 132/132/132

v -0.5 2.125 8.125
vt 0.25 0.0625
vn 0.9264000058 0.1397999972 0.3495999873
v -1 2 9.5
vt 0.25 0
vn 0.9264000058 0.1397999972 0.3495999873
v -0.5 0.875 8.625
vt 0.3125 0.0625
vn 0.9264000058 0.1397999972 0.3495999873
f 133/133/133 134/134/134 135/135/135

v -0.5 2.25 6.75
vt 0.25 0.125
vn 0.9279000163 -0.3711999953 -0.0337000005
v -0.5 2.125 8.125
vt 0.25 0.0625
vn 0.9279000163 -0.3711999953 -0.0337000005
v -1 1 6.75
vt 0.3125 0.125
vn 0.9279000163 -0.3711999953 -0.0337000005
f 136/136/136 137/137/137 138/138/138

v -0.5 2.375 5.375
vt 0.25 0.1875
vn 0.9279000163 -0.3711999953 -0.0337000005
v -0.5 2.25 6.75
vt 0.25 0.125
vn 0.9279000163 -0.3711999953 -0.0337000005
v -1 1.125 5.375
vt 0.3125 0.1875
vn 0.9279000163 -0.3711999953 -0.0337000005
f 139/139/139 140/140/140 141/141/141

v -1 2.5 4
vt 0.25 0.25
vn 0.939800024 0 -0.3416999876
v -0.5 2.375 5.375
vt 0.25 0.1875
vn 0.939800024 0 -0.3416999876
v -1 1.25 4
vt 0.3125 0.25
vn 0.939800024 0 -0.3416999876
f 142/142/142 143/143/143 144/144/144

v -1 1 9.5
vt 0.3125 0
vn 0.8682000041 0 0.4961000085
v -0.5 0.875 8.625
vt 0.3125 0.0625
vn 0.8682000041 0 0.4961000085
v -1 2 9.5
vt 0.25 0
vn 0.8682000041 0 0.4961000085
f 145/145/145 146/146/146 147/147/147

v -0.5 0.875 8.625
vt 0.3125 0.0625
vn 0.8682000041 0 0.4961000085
v -1 1 9.5
vt 0.3125 0
vn 0.8682000041 0 0.4961000085
v -0.5 -0.125 8.625
vt 0.375 0.0625
vn 0.8682000041 0 0.4961000085
f 148/148/148 149/149/149 150/150/150

v -0.5 -0.125 8.625
vt 0.375 0.0625
vn 0.9661999941 0 -0.2576999962
v -1 -0.25 6.75
vt 0.375 0.125
vn 0.9661999941 0 -0.2576999962
v -0.5 0.875 8.625
vt 0.3125 0.0625
vn 0.9661999941 0 -0.2576999962
f 151/151/151 152/152/152 153/153/153

v -1 0 9.5
vt 0.375 0
vn 0.8682000041 0 0.4961000085
v -0.5 -0.125 8.625
vt 0.375 0.0625
vn 0.8682000041 0 0.4961000085
v -1 1 9.5
vt 0.3125 0
vn 0.8682000041 0 0.4961000085
f 154/154/154 155/155/155 156/156/156

v -1 -0.25 6.75
vt 0.375 0.125
vn 0.9661999941 0 -0.2576999962
v -0.5 -0.125 8.625
vt 0.375 0.0625
vn 0.9661999941 0 -0.2576999962
v -1 -1.25 6.75
vt 0.4375 0.125
vn 0.9661999941 0 -0.2576999962
f 157/157/157 158/158/158 159/159/159

v -0.5 -0.125 8.625
vt 0.375 0.0625
vn 0.8682000041 0 0.4961000085
v -1 0 9.5
vt 0.375 0
vn 0.8682000041 0 0.4961000085
v -0.5 -1.125 8.625
vt 0.4375 0.0625
vn 0.8682000041 0 0.4961000085
f 160/160/160 161/161/161 162/162/162

v -1 -1.25 6.75
vt 0.4375 0.125
vn 1 0 0
v -1 -1.375 5.375
vt 0.4375 0.1875
vn 1 0 0
v -1 -0.25 6.75
vt 0.375 0.125
vn 1 0 0
f 163/163/163 164/164/164 165/165/165

v -0.5 -1.125 8.625
vt 0.4375 0.0625
vn 0.9661999941 0 -0.2576999962
v -1 -1.25 6.75
vt 0.4375 0.125
vn 0.9661999941 0 -0.2576999962
v -0.5 -0.125 8.625
vt 0.375 0.0625
vn 0.9661999941 0 -0.2576999962
f 166/166/166 167/167/167 168/168/168

v -1 -1 9.5
vt 0.4375 0
vn 0.8682000041 0 0.4961000085
v -0.5 -1.125 8.625
vt 0.4375 0.0625
vn 0.8682000041 0 0.4961000085
v -1 0 9.5
vt 0.375 0
vn 0.8682000041 0 0.4961000085
f 169/169/169 170/170/170 171/171/171

v -1 -1.375 5.375
vt 0.4375 0.1875
vn 0.8937000036 0.4467999935 -0.0406000018
v -1 -1.25 6.75
vt 0.4375 0.125
vn 0.8937000036 0.4467999935 -0.0406000018
v -0.5 -2.375 5.375
vt 0.5 0.1875
vn 0.8937000036 0.4467999935 -0.0406000018
f 172/172/172 173/173/173 174/174/174

v -1 -1.25 6.75
vt 0.4375 0.125
vn 0.8639000058 0.4318999946 -0.2592000067
v -0.5 -1.125 8.625
vt 0.4375 0.0625
vn 0.8639000058 0.4318999946 -0.2592000067
v -0.5 -2.25 6.75
vt 0.5 0.125
vn 0.8639000058 0.4318999946 -0.2592000067
f 175/175/175 176/176/176 177/177/177

v -0.5 -1.125 8.625
vt 0.4375 0.0625
vn 0.8238000274 -0.2535000145 0.5070000291
v -1 -1 9.5
vt 0.4375 0
vn 0.8238000274 -0.2535000145 0.5070000291
v -0.5 -2.125 8.125
vt 0.5 0.0625
vn 0.8238000274 -0.2535000145 0.5070000291
f 178/178/178 179/179/179 180/180/180

v -0.5 -2.375 5.375
vt 0.5 0.1875
vn 0.8399999738 0.4199999869 -0.3436000049
v -1 -2.5 4
vt 0.5 0.25
vn 0.8399999738 0.4199999869 -0.3436000049
v -1 -1.375 5.375
vt 0.4375 0.1875
vn 0.8399999738 0.4199999869 -0.3436000049
f 181/181/181 182/182/182 183/183/183

v -0.5 -2.25 6.75
vt 0.5 0.125
vn 0.8937000036 0.4467999935 -0.0406000018
v -0.5 -2.375 5.375
vt 0.5 0.1875
vn 0.8937000036 0.4467999935 -0.0406000018
v -1 -1.25 6.75
vt 0.4375 0.125
vn 0.8937000036 0.4467999935 -0.0406000018
f 184/184/184 185/185/185 186/186/186

v -0.5 -2.125 8.125
vt 0.5 0.0625
vn 1 0 0
v -0.5 -2.25 6.75
vt 0.5 0.125
vn 1 0 0
v -0.5 -1.125 8.625
vt 0.4375 0.0625
vn 1 0 0
f 187/187/187 188/188/188 189/189/189

v -1 -2 9.5
vt 0.5 0
vn 0.939800024 0 0.3416999876
v -0.5 -2.125 8.125
vt 0.5 0.0625
vn 0.939800024 0 0.3416999876
v -1 -1 9.5
vt 0.4375 0
vn 0.939800024 0 0.3416999876
f 190/190/190 191/191/191 192/192/192

v 0 -1.5 4.5
vt 0.25 0.25
vn 1 0 0
v 0 1.5 4.5
vt 0 0.25
vn 1 0 0
v 0 1.5 8
vt 0 0
vn 1 0 0
f 193/193/193 194/194/194 195/195/195

v 0 1.5 8
vt 0 0
vn 1 0 0
v 0 -1.5 8
vt 0.25 0
vn 1 0 0
v 0 -1.5 4.5
vt 0.25 0.25
vn 1 0 0
f 196/196/196 197/197/197 198/198/198

v -0.5 -0.5 4
vt 0.625 0.109375
vn 1 0 0
v -0.5 0.5 4
vt 0.5 0.109375
vn 1 0 0
v -0.5 0.5 4.5
vt 0.5 0.03125
vn 1 0 0
f 199/199/199 200/200/200 201/201/201

v -0.5 0.5 4.5
vt 0.5 0.03125
vn 1 0 0
v -0.5 -0.5 4.5
vt 0.625 0.03125
vn 1 0 0
v -0.5 -0.5 4
vt 0.625 0.109375
vn 1 0 0
f 202/202/202 203/203/203 204/204/204

v -0.5 -1.5 -1
vt 0.75 0.375
vn 0.9950000048 0 -0.0995000005
v -0.5 1.5 -1
vt 0.5 0.375
vn 0.9950000048 0 -0.0995000005
v 0 1.5 4
vt 0.5 0.125
vn 0.9950000048 0 -0.0995000005
f 205/205/205 206/206/206 207/207/207

v 0 1.5 4
vt 0.5 0.125
vn 0.9950000048 0 -0.0995000005
v 0 -1.5 4
vt 0.75 0.125
vn 0.9950000048 0 -0.0995000005
v -0.5 -1.5 -1
vt 0.75 0.375
vn 0.9950000048 0 -0.0995000005
f 208/208/208 209/209/209 210/210/210

v 0 -1.5 -2
vt 0.75 0.46875
vn 0.8944000006 0 0.4472000003
v 0 1.5 -2
vt 0.5 0.46875
vn 0.8944000006 0 0.4472000003
v -0.5 1.5 -1
vt 0.5 0.375
vn 0.8944000006 0 0.4472000003
f 211/211/211 212/212/212 213/213/213

v -0.5 1.5 -1
vt 0.5 0.375
vn 0.8944000006 0 0.4472000003
v -0.5 -1.5 -1
vt 0.75 0.375
vn 0.8944000006 0 0.4472000003
v 0 -1.5 -2
vt 0.75 0.46875
vn 0.8944000006 0 0.4472000003
f 214/214/214 215/215/215 216/216/216

v 0 1 3
vt 0.59375 0.1875
vn 1 0 0
v 0 2 3
vt 0.5 0.1875
vn 1 0 0
v 0 2 4
vt 0.5 0.125
vn 1 0 0
f 217/217/217 218/218/218 219/219/219

v 0 2 4
vt 0.5 0.125
vn 1 0 0
v 0 1 4
vt 0.59375 0.125
vn 1 0 0
v 0 1 3
vt 0.59375 0.1875
vn 1 0 0
f 220/220/220 221/221/221 222/222/222

v 0 -2 3
vt 0.75 0.1875
vn 1 0 0
v 0 -1 3
vt 0.65625 0.1875
vn 1 0 0
v 0 -1 4
vt 0.65625 0.125
vn 1 0 0
f 223/223/223 224/224/224 225/225/225

v 0 -1 4
vt 0.65625 0.125
vn 1 0 0
v 0 -2 4
vt 0.75 0.125
vn 1 0 0
v 0 -2 3
vt 0.75 0.1875
vn 1 0 0
f 226/226/226 227/227/227 228/228/228

v -1 2 0.5
vt 0.859375 0.375
vn 0.9864000082 0 -0.1643999964
v -1 3 0.5
vt 0.765625 0.375
vn 0.9864000082 0 -0.1643999964
v -0.5 2 3.5
vt 0.765625 0.125
vn 0.9864000082 0 -0.1643999964
f 229/229/229 230/230/230 231/231/231

v -0.5 2 3.5
vt 0.765625 0.125
vn 0.9864000082 0 -0.1643999964
v -0.5 1 3.5
vt 0.859375 0.125
vn 0.9864000082 0 -0.1643999964
v -1 2 0.5
vt 0.859375 0.375
vn 0.9864000082 0 -0.1643999964
f 232/232/232 233/233/233 234/234/234

v 1 3.5 -2
vt 0.84375 0.625
vn 0.7809000015 0 0.6247000098
v 1 4.5 -2
vt 0.75 0.625
vn 0.7809000015 0 0.6247000098
v -1 3 0.5
vt 0.75 0.375
vn 0.7809000015 0 0.6247000098
f 235/235/235 236/236/236 237/237/237

v -1 3 0.5
vt 0.75 0.375
vn 0.7809000015 0 0.6247000098
v -1 2 0.5
vt 0.84375 0.375
vn 0.7809000015 0 0.6247000098
v 1 3.5 -2
vt 0.84375 0.625
vn 0.7809000015 0 0.6247000098
f 238/238/238 239/239/239 240/240/240

v 0.5 3 -3.5
vt 0.875 0.75
vn 1 0 0
v 0.5 5 -4
vt 0.75 0.75
vn 1 0 0
v 0.5 4.5 -2
vt 0.75 0.625
vn 1 0 0
f 241/241/241 242/242/242 243/243/243

v 0.5 4.5 -2
vt 0.75 0.625
vn 1 0 0
v 0.5 3.5 -2
vt 0.875 0.625
vn 1 0 0
v 0.5 3 -3.5
vt 0.875 0.75
vn 1 0 0
f 244/244/244 245/245/245 246/246/246

v -1 -3 0.5
vt 0.984375 0.375
vn 0.9864000082 0 -0.1643999964
v -1 -2 0.5
vt 0.890625 0.375
vn 0.9864000082 0 -0.1643999964
v -0.5 -1 3.5
vt 0.890625 0.125
vn 0.9864000082 0 -0.1643999964
f 247/247/247 248/248/248 249/249/249

v -0.5 -1 3.5
vt 0.890625 0.125
vn 0.9864000082 0 -0.1643999964
v -0.5 -2 3.5
vt 0.984375 0.125
vn 0.9864000082 0 -0.1643999964
v -1 -3 0.5
vt 0.984375 0.375
vn 0.9864000082 0 -0.1643999964
f 250/250/250 251/251/251 252/252/252

v 1 -4.5 -2
vt 1 0.625
vn 0.7809000015 0 0.6247000098
v 1 -3.5 -2
vt 0.90625 0.625
vn 0.7809000015 0 0.6247000098
v -1 -2 0.5
vt 0.90625 0.375
vn 0.7809000015 0 0.6247000098
f 253/253/253 254/254/254 255/255/255

v -1 -2 0.5
vt 0.90625 0.375
vn 0.7809000015 0 0.6247000098
v -1 -3 0.5
vt 1 0.375
vn 0.7809000015 0 0.6247000098
v 1 -4.5 -2
vt 1 0.625
vn 0.7809000015 0 0.6247000098
f 256/256/256 257/257/257 258/258/258

v 0.5 -5 -4
vt 1 0.75
vn 1 0 0
v 0.5 -3 -3.5
vt 0.875 0.75
vn 1 0 0
v 0.5 -3.5 -2
vt 0.875 0.625
vn 1 0 0
f 259/259/259 260/260/260 261/261/261

v 0.5 -3.5 -2
vt 0.875 0.625
vn 1 0 0
v 0.5 -4.5 -2
vt 1 0.625
vn 1 0 0
v 0.5 -5 -4
vt 1 0.75
vn 1 0 0
f 262/262/262 263/263/263 264/264/264

v 0.5 -2 -4
vt 0.75 0.546875
vn 0.9700999856 0 0.2425000072
v 0.5 2 -4
vt 0.5 0.546875
vn 0.9700999856 0 0.2425000072
v 0 1.5 -2
vt 0.5 0.46875
vn 0.9700999856 0 0.2425000072
f 265/265/265 266/266/266 267/267/267

v 0 1.5 -2
vt 0.5 0.46875
vn 0.9700999856 0 0.2425000072
v 0 -1.5 -2
vt 0.75 0.46875
vn 0.9700999856 0 0.2425000072
v 0.5 -2 -4
vt 0.75 0.546875
vn 0.9700999856 0 0.2425000072
f 268/268/268 269/269/269 270/270/270

v 1 0 -8
vt 0.625 0.75
vn 0.992299974 0 0.123999998
v 1 2 -8
vt 0.5 0.75
vn 0.992299974 0 0.123999998
v 0.5 2 -4
vt 0.5 0.546875
vn 0.992299974 0 0.123999998
f 271/271/271 272/272/272 273/273/273

v 0.5 2 -4
vt 0.5 0.546875
vn 0.992299974 0 0.123999998
v 0.5 0 -4
vt 0.625 0.546875
vn 0.992299974 0 0.123999998
v 1 0 -8
vt 0.625 0.75
vn 0.992299974 0 0.123999998
f 274/274/274 275/275/275 276/276/276

v 0 0 -12.5
vt 0.25 0.625
vn 0.9117000103 -0.4052000046 -0.0675000027
v 0 0.5 -15.5
vt 0.125 0.625
vn 0.9117000103 -0.4052000046 -0.0675000027
v 1 1.5 -8
vt 0.125 0.25
vn 0.9117000103 -0.4052000046 -0.0675000027
f 277/277/277 278/278/278 279/279/279

v 1 1.5 -8
vt 0.125 0.25
vn 0.9761999846 0 -0.2169000059
v 1 0.5 -8
vt 0.25 0.25
vn 0.9761999846 0 -0.2169000059
v 0 0 -12.5
vt 0.25 0.625
vn 0.9761999846 0 -0.2169000059
f 280/280/280 281/281/281 282/282/282

v 2.5 -2 -7
vt 0.75 0.75
vn 0.8320999742 0 0.554700017
v 2.5 0 -7
vt 0.625 0.75
vn 0.8320999742 0 0.554700017
v 0.5 0 -4
vt 0.625 0.546875
vn 0.8320999742 0 0.554700017
f 283/283/283 284/284/284 285/285/285

v 0.5 0 -4
vt 0.625 0.546875
vn 0.8320999742 0 0.554700017
v 0.5 -2 -4
vt 0.75 0.546875
vn 0.8320999742 0 0.554700017
v 2.5 -2 -7
vt 0.75 0.75
vn 0.8320999742 0 0.554700017
f 286/286/286 287/287/287 288/288/288

v 0 -1.5 -14
vt 0.125 0.625
vn 0.5710999966 0.7788000107 -0.2596000135
v 0 -0.5 -11
vt 0 0.625
vn 0.5710999966 0.7788000107 -0.2596000135
v 2.5 -1 -7
vt 0 0.25
vn 0.5710999966 0.7788000107 -0.2596000135
f 289/289/289 290/290/290 291/291/291

v 2.5 -1 -7
vt 0 0.25
vn 0.9416999817 0 -0.3362999856
v 2.5 -2 -7
vt 0.125 0.25
vn 0.9416999817 0 -0.3362999856
v 0 -1.5 -14
vt 0.125 0.625
vn 0.9416999817 0 -0.3362999856
f 292/292/292 293/293/293 294/294/294

