{"asset":{"version":"2.0","generator":"Blockbench 4.6.1 glTF exporter"},"scenes":[{"nodes":[4],"name":"blockbench_export"}],"scene":0,"nodes":[{"name":"sphere","mesh":0},{"rotation":[0,0,-0.7071067811865475,0.7071067811865476],"name":"cylinder","mesh":1},{"rotation":[0,0,-0.7071067811865475,0.7071067811865476],"name":"cylinder","mesh":2},{"rotation":[-0.40274668985873724,0,0,0.9153114791194471],"name":"cylinder","mesh":3},{"children":[0,1,2,3]}],"bufferViews":[{"buffer":0,"byteOffset":0,"byteLength":3168,"target":34962,"byteStride":12},{"buffer":0,"byteOffset":3168,"byteLength":3168,"target":34962,"byteStride":12},{"buffer":0,"byteOffset":6336,"byteLength":2112,"target":34962,"byteStride":8},{"buffer":0,"byteOffset":8448,"byteLength":320,"target":34963},{"buffer":0,"byteOffset":8768,"byteLength":12,"target":34963},{"buffer":0,"byteOffset":8780,"byteLength":392,"target":34963},{"buffer":0,"byteOffset":9172,"byteLength":1440,"target":34962,"byteStride":12},{"buffer":0,"byteOffset":10612,"byteLength":1440,"target":34962,"byteStride":12},{"buffer":0,"byteOffset":12052,"byteLength":960,"target":34962,"byteStride":8},{"buffer":0,"byteOffset":13012,"byteLength":288,"target":34963},{"buffer":0,"byteOffset":13300,"byteLength":1440,"target":34962,"byteStride":12},{"buffer":0,"byteOffset":14740,"byteLength":1440,"target":34962,"byteStride":12},{"buffer":0,"byteOffset":16180,"byteLength":960,"target":34962,"byteStride":8},{"buffer":0,"byteOffset":17140,"byteLength":288,"target":34963},{"buffer":0,"byteOffset":17428,"byteLength":1440,"target":34962,"byteStride":12},{"buffer":0,"byteOffset":18868,"byteLength":1440,"target":34962,"byteStride":12},{"buffer":0,"byteOffset":20308,"byteLength":960,"target":34962,"byteStride":8},{"buffer":0,"byteOffset":21268,"byteLength":288,"target":34963}],"buffers":[{"byteLength":21556,"uri":"data:application/octet-stream;base64,"}],"accessors":[{"bufferView":0,"componentType":5126,"count":264,"max":[0.0625,1.125,0.6875],"min":[-1.3125,-0.25,-0.6875],"type":"VEC3"},{"bufferView":1,"componentType":5126,"count":264,"max":[0.9659258127212524,0.9659258127212524,0.9659258127212524],"min":[-0.9659258127212524,-0.9659258127212524,-0.9659258127212524],"type":"VEC3"},{"bufferView":2,"componentType":5126,"count":264,"max":[1,1],"min":[0,0],"type":"VEC2"},{"bufferView":3,"componentType":5123,"count":159,"max":[116],"min":[0],"type":"SCALAR"},{"bufferView":4,"componentType":5123,"count":6,"max":[120],"min":[117],"type":"SCALAR"},{"bufferView":5,"componentType":5123,"count":195,"max":[263],"min":[121],"type":"SCALAR"},{"bufferView":6,"componentType":5126,"count":120,"max":[0.125,1.5,0.5625],"min":[-1,-0.625,-0.5625],"type":"VEC3"},{"bufferView":7,"componentType":5126,"count":120,"max":[1,1,1],"min":[-1,-1,-1],"type":"VEC3"},{"bufferView":8,"componentType":5126,"count":120,"max":[0.5,1],"min":[0,0.46875],"type":"VEC2"},{"bufferView":9,"componentType":5123,"count":144,"max":[119],"min":[0],"type":"SCALAR"},{"bufferView":10,"componentType":5126,"count":120,"max":[0,1.5625,0.4375],"min":[-0.875,1.4375,-0.4375],"type":"VEC3"},{"bufferView":11,"componentType":5126,"count":120,"max":[1,1,1],"min":[-1,-1,-1],"type":"VEC3"},{"bufferView":12,"componentType":5126,"count":120,"max":[1,1],"min":[0.3515625,0],"type":"VEC2"},{"bufferView":13,"componentType":5123,"count":144,"max":[119],"min":[0],"type":"SCALAR"},{"bufferView":14,"componentType":5126,"count":120,"max":[-0.5625,1.125,0.5],"min":[-0.8125,0.875,0.25],"type":"VEC3"},{"bufferView":15,"componentType":5126,"count":120,"max":[1,1,1],"min":[-1,-1,-1],"type":"VEC3"},{"bufferView":16,"componentType":5126,"count":120,"max":[0.5,1],"min":[0,0.46875],"type":"VEC2"},{"bufferView":17,"componentType":5123,"count":144,"max":[119],"min":[0],"type":"SCALAR"}],"materials":[{"pbrMetallicRoughness":{"metallicFactor":0,"roughnessFactor":1,"baseColorTexture":{"index":0}},"alphaMode":"MASK","alphaCutoff":0.05,"doubleSided":true},{"pbrMetallicRoughness":{"metallicFactor":0,"roughnessFactor":1,"baseColorTexture":{"index":1}},"alphaMode":"MASK","alphaCutoff":0.05,"doubleSided":true}],"textures":[{"sampler":0,"source":0,"name":"cannon which is seruos"},{"sampler":1,"source":1,"name":"pasted"}],"samplers":[{"magFilter":9728,"minFilter":9728,"wrapS":33071,"wrapT":33071},{"magFilter":9728,"minFilter":9728,"wrapS":33071,"wrapT":33071}],"images":[{"mimeType":"image/png","uri":"data:image/png;base64,"},{"mimeType":"image/png","uri":"data:image/png;base64,"}],"meshes":[{"primitives":[{"mode":4,"attributes":{"POSITION":0,"NORMAL":1,"TEXCOORD_0":2},"indices":3,"material":0},{"mode":4,"attributes":{"POSITION":0,"NORMAL":1,"TEXCOORD_0":2},"indices":4,"material":1},{"mode":4,"attributes":{"POSITION":0,"NORMAL":1,"TEXCOORD_0":2},"indices":5,"material":0}]},{"primitives":[{"mode":4,"attributes":{"POSITION":6,"NORMAL":7,"TEXCOORD_0":8},"indices":9,"material":0}]},{"primitives":[{"mode":4,"attributes":{"POSITION":10,"NORMAL":11,"TEXCOORD_0":12},"indices":13,"material":0}]},{"primitives":[{"mode":4,"attributes":{"POSITION":14,"NORMAL":15,"TEXCOORD_0":16},"indices":17,"material":0}]}]}