{"asset":{"version":"2.0","generator":"Blockbench 4.4.3 glTF exporter"},"scenes":[{"nodes":[4],"name":"blockbench_export"}],"scene":0,"nodes":[{"name":"cube","mesh":0},{"rotation":[-0.7071067811865475,0,0,0.7071067811865476],"name":"pyramid","mesh":1},{"name":"pyramid","mesh":2},{"name":"cube","mesh":3},{"children":[0,1,2,3]}],"bufferViews":[{"buffer":0,"byteOffset":0,"byteLength":288,"target":34962,"byteStride":12},{"buffer":0,"byteOffset":288,"byteLength":288,"target":34962,"byteStride":12},{"buffer":0,"byteOffset":576,"byteLength":192,"target":34962,"byteStride":8},{"buffer":0,"byteOffset":768,"byteLength":72,"target":34963},{"buffer":0,"byteOffset":840,"byteLength":192,"target":34962,"byteStride":12},{"buffer":0,"byteOffset":1032,"byteLength":192,"target":34962,"byteStride":12},{"buffer":0,"byteOffset":1224,"byteLength":128,"target":34962,"byteStride":8},{"buffer":0,"byteOffset":1352,"byteLength":36,"target":34963},{"buffer":0,"byteOffset":1388,"byteLength":192,"target":34962,"byteStride":12},{"buffer":0,"byteOffset":1580,"byteLength":192,"target":34962,"byteStride":12},{"buffer":0,"byteOffset":1772,"byteLength":128,"target":34962,"byteStride":8},{"buffer":0,"byteOffset":1900,"byteLength":36,"target":34963},{"buffer":0,"byteOffset":1936,"byteLength":288,"target":34962,"byteStride":12},{"buffer":0,"byteOffset":2224,"byteLength":288,"target":34962,"byteStride":12},{"buffer":0,"byteOffset":2512,"byteLength":192,"target":34962,"byteStride":8},{"buffer":0,"byteOffset":2704,"byteLength":72,"target":34963}],"buffers":[{"byteLength":2776,"uri":"data:application/octet-stream;base64,"}],"accessors":[{"bufferView":0,"componentType":5126,"count":24,"max":[0.25,0.8125,0.5],"min":[-0.25,0.3125,-0.5],"type":"VEC3"},{"bufferView":1,"componentType":5126,"count":24,"max":[1,1,1],"min":[-1,-1,-1],"type":"VEC3"},{"bufferView":2,"componentType":5126,"count":24,"max":[0.609375,1],"min":[0,0.484375],"type":"VEC2"},{"bufferView":3,"componentType":5123,"count":36,"max":[23],"min":[0],"type":"SCALAR"},{"bufferView":4,"componentType":5126,"count":16,"max":[0.25,1,0.8125],"min":[-0.25,0.5,0.3125],"type":"VEC3"},{"bufferView":5,"componentType":5126,"count":16,"max":[0.8944271802902222,0.4472135901451111,0.8944271802902222],"min":[-0.8944271802902222,-1,-0.8944271802902222],"type":"VEC3"},{"bufferView":6,"componentType":5126,"count":16,"max":[0.5,1],"min":[0,0.375],"type":"VEC2"},{"bufferView":7,"componentType":5123,"count":18,"max":[15],"min":[0],"type":"SCALAR"},{"bufferView":8,"componentType":5126,"count":16,"max":[0,1.1875,0.4375],"min":[0,0.8125,-0.4375],"type":"VEC3"},{"bufferView":9,"componentType":5126,"count":16,"max":[1,0,0],"min":[-1,0,0],"type":"VEC3"},{"bufferView":10,"componentType":5126,"count":16,"max":[0.515625,1],"min":[0,0.609375],"type":"VEC2"},{"bufferView":11,"componentType":5123,"count":18,"max":[15],"min":[0],"type":"SCALAR"},{"bufferView":12,"componentType":5126,"count":24,"max":[-0.125,0.6875,0.125],"min":[-0.375,0.4375,-0.125],"type":"VEC3"},{"bufferView":13,"componentType":5126,"count":24,"max":[1,1,1],"min":[-1,-1,-1],"type":"VEC3"},{"bufferView":14,"componentType":5126,"count":24,"max":[0.5625,1],"min":[0.125,0.4375],"type":"VEC2"},{"bufferView":15,"componentType":5123,"count":36,"max":[23],"min":[0],"type":"SCALAR"}],"materials":[{"pbrMetallicRoughness":{"metallicFactor":0,"roughnessFactor":1,"baseColorTexture":{"index":0}},"alphaMode":"MASK","alphaCutoff":0.05,"doubleSided":true}],"textures":[{"sampler":0,"source":0,"name":"fish"}],"samplers":[{"magFilter":9728,"minFilter":9728,"wrapS":33071,"wrapT":33071}],"images":[{"mimeType":"image/png","uri":"data:image/png;base64,"}],"meshes":[{"primitives":[{"mode":4,"attributes":{"POSITION":0,"NORMAL":1,"TEXCOORD_0":2},"indices":3,"material":0}]},{"primitives":[{"mode":4,"attributes":{"POSITION":4,"NORMAL":5,"TEXCOORD_0":6},"indices":7,"material":0}]},{"primitives":[{"mode":4,"attributes":{"POSITION":8,"NORMAL":9,"TEXCOORD_0":10},"indices":11,"material":0}]},{"primitives":[{"mode":4,"attributes":{"POSITION":12,"NORMAL":13,"TEXCOORD_0":14},"indices":15,"material":0}]}]}