{"asset":{"version":"2.0","generator":"Blockbench 4.4.2 glTF exporter"},"scenes":[{"nodes":[16],"name":"blockbench_export"}],"scene":0,"nodes":[{"name":"cube","mesh":0},{"name":"cube","mesh":1},{"name":"cube","mesh":2},{"rotation":[-0.13052619222005157,0,0,0.9914448613738104],"name":"cube","mesh":3},{"name":"cube","mesh":4},{"rotation":[-5.756044127246307e-18,0.10886687485196457,-0.9940563382223196,6.222884972861194e-17],"name":"cube","mesh":5},{"rotation":[0,0,-1,6.123233995736766e-17],"name":"cube","mesh":6},{"name":"cube","mesh":7},{"name":"cube","mesh":8},{"name":"cube","mesh":9},{"rotation":[0,0,-1,6.123233995736766e-17],"name":"cube","mesh":10},{"rotation":[0,0,-1,6.123233995736766e-17],"name":"cube","mesh":11},{"rotation":[0,0,-1,6.123233995736766e-17],"name":"cube","mesh":12},{"name":"cube","mesh":13},{"name":"cube","mesh":14},{"name":"cube","mesh":15},{"children":[0,1,2,3,4,5,6,7,8,9,10,11,12,13,14,15]}],"bufferViews":[{"buffer":0,"byteOffset":0,"byteLength":288,"target":34962,"byteStride":12},{"buffer":0,"byteOffset":288,"byteLength":288,"target":34962,"byteStride":12},{"buffer":0,"byteOffset":576,"byteLength":192,"target":34962,"byteStride":8},{"buffer":0,"byteOffset":768,"byteLength":72,"target":34963},{"buffer":0,"byteOffset":840,"byteLength":288,"target":34962,"byteStride":12},{"buffer":0,"byteOffset":1128,"byteLength":288,"target":34962,"byteStride":12},{"buffer":0,"byteOffset":1416,"byteLength":192,"target":34962,"byteStride":8},{"buffer":0,"byteOffset":1608,"byteLength":72,"target":34963},{"buffer":0,"byteOffset":1680,"byteLength":288,"target":34962,"byteStride":12},{"buffer":0,"byteOffset":1968,"byteLength":288,"target":34962,"byteStride":12},{"buffer":0,"byteOffset":2256,"byteLength":192,"target":34962,"byteStride":8},{"buffer":0,"byteOffset":2448,"byteLength":72,"target":34963},{"buffer":0,"byteOffset":2520,"byteLength":288,"target":34962,"byteStride":12},{"buffer":0,"byteOffset":2808,"byteLength":288,"target":34962,"byteStride":12},{"buffer":0,"byteOffset":3096,"byteLength":192,"target":34962,"byteStride":8},{"buffer":0,"byteOffset":3288,"byteLength":72,"target":34963},{"buffer":0,"byteOffset":3360,"byteLength":1152,"target":34962,"byteStride":12},{"buffer":0,"byteOffset":4512,"byteLength":1152,"target":34962,"byteStride":12},{"buffer":0,"byteOffset":5664,"byteLength":768,"target":34962,"byteStride":8},{"buffer":0,"byteOffset":6432,"byteLength":288,"target":34963},{"buffer":0,"byteOffset":6720,"byteLength":288,"target":34962,"byteStride":12},{"buffer":0,"byteOffset":7008,"byteLength":288,"target":34962,"byteStride":12},{"buffer":0,"byteOffset":7296,"byteLength":192,"target":34962,"byteStride":8},{"buffer":0,"byteOffset":7488,"byteLength":72,"target":34963},{"buffer":0,"byteOffset":7560,"byteLength":1152,"target":34962,"byteStride":12},{"buffer":0,"byteOffset":8712,"byteLength":1152,"target":34962,"byteStride":12},{"buffer":0,"byteOffset":9864,"byteLength":768,"target":34962,"byteStride":8},{"buffer":0,"byteOffset":10632,"byteLength":288,"target":34963},{"buffer":0,"byteOffset":10920,"byteLength":1152,"target":34962,"byteStride":12},{"buffer":0,"byteOffset":12072,"byteLength":1152,"target":34962,"byteStride":12},{"buffer":0,"byteOffset":13224,"byteLength":768,"target":34962,"byteStride":8},{"buffer":0,"byteOffset":13992,"byteLength":288,"target":34963},{"buffer":0,"byteOffset":14280,"byteLength":1152,"target":34962,"byteStride":12},{"buffer":0,"byteOffset":15432,"byteLength":1152,"target":34962,"byteStride":12},{"buffer":0,"byteOffset":16584,"byteLength":768,"target":34962,"byteStride":8},{"buffer":0,"byteOffset":17352,"byteLength":288,"target":34963},{"buffer":0,"byteOffset":17640,"byteLength":1152,"target":34962,"byteStride":12},{"buffer":0,"byteOffset":18792,"byteLength":1152,"target":34962,"byteStride":12},{"buffer":0,"byteOffset":19944,"byteLength":768,"target":34962,"byteStride":8},{"buffer":0,"byteOffset":20712,"byteLength":288,"target":34963},{"buffer":0,"byteOffset":21000,"byteLength":1152,"target":34962,"byteStride":12},{"buffer":0,"byteOffset":22152,"byteLength":1152,"target":34962,"byteStride":12},{"buffer":0,"byteOffset":23304,"byteLength":768,"target":34962,"byteStride":8},{"buffer":0,"byteOffset":24072,"byteLength":288,"target":34963},{"buffer":0,"byteOffset":24360,"byteLength":1152,"target":34962,"byteStride":12},{"buffer":0,"byteOffset":25512,"byteLength":1152,"target":34962,"byteStride":12},{"buffer":0,"byteOffset":26664,"byteLength":768,"target":34962,"byteStride":8},{"buffer":0,"byteOffset":27432,"byteLength":288,"target":34963},{"buffer":0,"byteOffset":27720,"byteLength":1152,"target":34962,"byteStride":12},{"buffer":0,"byteOffset":28872,"byteLength":1152,"target":34962,"byteStride":12},{"buffer":0,"byteOffset":30024,"byteLength":768,"target":34962,"byteStride":8},{"buffer":0,"byteOffset":30792,"byteLength":288,"target":34963},{"buffer":0,"byteOffset":31080,"byteLength":1152,"target":34962,"byteStride":12},{"buffer":0,"byteOffset":32232,"byteLength":1152,"target":34962,"byteStride":12},{"buffer":0,"byteOffset":33384,"byteLength":768,"target":34962,"byteStride":8},{"buffer":0,"byteOffset":34152,"byteLength":288,"target":34963},{"buffer":0,"byteOffset":34440,"byteLength":1152,"target":34962,"byteStride":12},{"buffer":0,"byteOffset":35592,"byteLength":1152,"target":34962,"byteStride":12},{"buffer":0,"byteOffset":36744,"byteLength":768,"target":34962,"byteStride":8},{"buffer":0,"byteOffset":37512,"byteLength":288,"target":34963},{"buffer":0,"byteOffset":37800,"byteLength":1152,"target":34962,"byteStride":12},{"buffer":0,"byteOffset":38952,"byteLength":1152,"target":34962,"byteStride":12},{"buffer":0,"byteOffset":40104,"byteLength":768,"target":34962,"byteStride":8},{"buffer":0,"byteOffset":40872,"byteLength":288,"target":34963}],"buffers":[{"byteLength":41160,"uri":"data:application/octet-stream;base64,"}],"accessors":[{"bufferView":0,"componentType":5126,"count":24,"max":[0.3125,0.8125,0.3125],"min":[-0.3125,0.0625,-0.3125],"type":"VEC3"},{"bufferView":1,"componentType":5126,"count":24,"max":[1,1,1],"min":[-1,-1,-1],"type":"VEC3"},{"bufferView":2,"componentType":5126,"count":24,"max":[0.46875,1],"min":[0,0.625],"type":"VEC2"},{"bufferView":3,"componentType":5123,"count":36,"max":[23],"min":[0],"type":"SCALAR"},{"bufferView":4,"componentType":5126,"count":24,"max":[0.4375,0.75,0.3125],"min":[0.3125,0.125,-0.3125],"type":"VEC3"},{"bufferView":5,"componentType":5126,"count":24,"max":[1,1,1],"min":[-1,-1,-1],"type":"VEC3"},{"bufferView":6,"componentType":5126,"count":24,"max":[0.5,0.84375],"min":[0,0.375],"type":"VEC2"},{"bufferView":7,"componentType":5123,"count":36,"max":[23],"min":[0],"type":"SCALAR"},{"bufferView":8,"componentType":5126,"count":24,"max":[-0.3125,0.75,0.3125],"min":[-0.4375,0.125,-0.3125],"type":"VEC3"},{"bufferView":9,"componentType":5126,"count":24,"max":[1,1,1],"min":[-1,-1,-1],"type":"VEC3"},{"bufferView":10,"componentType":5126,"count":24,"max":[0.625,1],"min":[0.15625,0.375],"type":"VEC2"},{"bufferView":11,"componentType":5123,"count":36,"max":[23],"min":[0],"type":"SCALAR"},{"bufferView":12,"componentType":5126,"count":24,"max":[0.3125,0.25,-0.25],"min":[-0.3125,0.125,-0.75],"type":"VEC3"},{"bufferView":13,"componentType":5126,"count":24,"max":[1,1,1],"min":[-1,-1,-1],"type":"VEC3"},{"bufferView":14,"componentType":5126,"count":24,"max":[0.46875,0.921875],"min":[0.078125,0.625],"type":"VEC2"},{"bufferView":15,"componentType":5123,"count":36,"max":[23],"min":[0],"type":"SCALAR"},{"bufferView":16,"componentType":5126,"count":96,"max":[-0.3125,0.75,-0.3125],"min":[-0.4375,0.125,-0.4375],"type":"VEC3"},{"bufferView":17,"componentType":5126,"count":96,"max":[1,1,1],"min":[-1,-1,-1],"type":"VEC3"},{"bufferView":18,"componentType":5126,"count":96,"max":[0.515625,0.9296875],"min":[0.078125,0.484375],"type":"VEC2"},{"bufferView":19,"componentType":5123,"count":144,"max":[95],"min":[0],"type":"SCALAR"},{"bufferView":20,"componentType":5126,"count":24,"max":[0.3125,-0.625,-0.3125],"min":[-0.3125,-0.75,-0.9375],"type":"VEC3"},{"bufferView":21,"componentType":5126,"count":24,"max":[1,1,1],"min":[-1,-1,-1],"type":"VEC3"},{"bufferView":22,"componentType":5126,"count":24,"max":[0.390625,1],"min":[0,0.6484375],"type":"VEC2"},{"bufferView":23,"componentType":5123,"count":36,"max":[23],"min":[0],"type":"SCALAR"},{"bufferView":24,"componentType":5126,"count":96,"max":[-0.3125,-0.125,-0.3125],"min":[-0.4375,-0.75,-0.4375],"type":"VEC3"},{"bufferView":25,"componentType":5126,"count":96,"max":[1,1,1],"min":[-1,-1,-1],"type":"VEC3"},{"bufferView":26,"componentType":5126,"count":96,"max":[0.515625,0.921875],"min":[0,0.484375],"type":"VEC2"},{"bufferView":27,"componentType":5123,"count":144,"max":[95],"min":[0],"type":"SCALAR"},{"bufferView":28,"componentType":5126,"count":96,"max":[-0.3125,0.875,0.3125],"min":[-0.4375,0.75,-0.3125],"type":"VEC3"},{"bufferView":29,"componentType":5126,"count":96,"max":[1,1,1],"min":[-1,-1,-1],"type":"VEC3"},{"bufferView":30,"componentType":5126,"count":96,"max":[0.515625,0.8046875],"min":[0.15625,0.515625],"type":"VEC2"},{"bufferView":31,"componentType":5123,"count":144,"max":[95],"min":[0],"type":"SCALAR"},{"bufferView":32,"componentType":5126,"count":96,"max":[0.4375,0.875,0.3125],"min":[0.3125,0.75,-0.3125],"type":"VEC3"},{"bufferView":33,"componentType":5126,"count":96,"max":[1,1,1],"min":[-1,-1,-1],"type":"VEC3"},{"bufferView":34,"componentType":5126,"count":96,"max":[0.53125,1],"min":[0.046875,0.4765625],"type":"VEC2"},{"bufferView":35,"componentType":5123,"count":144,"max":[95],"min":[0],"type":"SCALAR"},{"bufferView":36,"componentType":5126,"count":96,"max":[0.3125,0.9375,0.3125],"min":[-0.3125,0.8125,-0.3125],"type":"VEC3"},{"bufferView":37,"componentType":5126,"count":96,"max":[1,1,1],"min":[-1,-1,-1],"type":"VEC3"},{"bufferView":38,"componentType":5126,"count":96,"max":[0.484375,1],"min":[0,0.578125],"type":"VEC2"},{"bufferView":39,"componentType":5123,"count":144,"max":[95],"min":[0],"type":"SCALAR"},{"bufferView":40,"componentType":5126,"count":96,"max":[0.3125,0.0625,0.3125],"min":[-0.3125,-0.0625,-0.3125],"type":"VEC3"},{"bufferView":41,"componentType":5126,"count":96,"max":[1,1,1],"min":[-1,-1,-1],"type":"VEC3"},{"bufferView":42,"componentType":5126,"count":96,"max":[0.546875,1],"min":[0,0.5234375],"type":"VEC2"},{"bufferView":43,"componentType":5123,"count":144,"max":[95],"min":[0],"type":"SCALAR"},{"bufferView":44,"componentType":5126,"count":96,"max":[-0.3125,0,0.3125],"min":[-0.4375,-0.125,-0.3125],"type":"VEC3"},{"bufferView":45,"componentType":5126,"count":96,"max":[1,1,1],"min":[-1,-1,-1],"type":"VEC3"},{"bufferView":46,"componentType":5126,"count":96,"max":[0.53125,1],"min":[0,0.4765625],"type":"VEC2"},{"bufferView":47,"componentType":5123,"count":144,"max":[95],"min":[0],"type":"SCALAR"},{"bufferView":48,"componentType":5126,"count":96,"max":[0.4375,0,0.3125],"min":[0.3125,-0.125,-0.3125],"type":"VEC3"},{"bufferView":49,"componentType":5126,"count":96,"max":[1,1,1],"min":[-1,-1,-1],"type":"VEC3"},{"bufferView":50,"componentType":5126,"count":96,"max":[0.53125,1],"min":[0.078125,0.484375],"type":"VEC2"},{"bufferView":51,"componentType":5123,"count":144,"max":[95],"min":[0],"type":"SCALAR"},{"bufferView":52,"componentType":5126,"count":96,"max":[0.3125,0.8125,0.4375],"min":[-0.3125,0.0625,0.3125],"type":"VEC3"},{"bufferView":53,"componentType":5126,"count":96,"max":[1,1,1],"min":[-1,-1,-1],"type":"VEC3"},{"bufferView":54,"componentType":5126,"count":96,"max":[0.515625,1],"min":[0,0.4765625],"type":"VEC2"},{"bufferView":55,"componentType":5123,"count":144,"max":[95],"min":[0],"type":"SCALAR"},{"bufferView":56,"componentType":5126,"count":96,"max":[0.4375,0.75,0.4375],"min":[0.3125,0.125,0.3125],"type":"VEC3"},{"bufferView":57,"componentType":5126,"count":96,"max":[1,1,1],"min":[-1,-1,-1],"type":"VEC3"},{"bufferView":58,"componentType":5126,"count":96,"max":[0.515625,0.6796875],"min":[0.234375,0.484375],"type":"VEC2"},{"bufferView":59,"componentType":5123,"count":144,"max":[95],"min":[0],"type":"SCALAR"},{"bufferView":60,"componentType":5126,"count":96,"max":[-0.3125,0.75,0.4375],"min":[-0.4375,0.125,0.3125],"type":"VEC3"},{"bufferView":61,"componentType":5126,"count":96,"max":[1,1,1],"min":[-1,-1,-1],"type":"VEC3"},{"bufferView":62,"componentType":5126,"count":96,"max":[0.515625,0.8984375],"min":[0.203125,0.484375],"type":"VEC2"},{"bufferView":63,"componentType":5123,"count":144,"max":[95],"min":[0],"type":"SCALAR"}],"materials":[{"pbrMetallicRoughness":{"metallicFactor":0,"roughnessFactor":1,"baseColorTexture":{"index":0}},"alphaMode":"MASK","alphaCutoff":0.05,"doubleSided":true},{"pbrMetallicRoughness":{"metallicFactor":0,"roughnessFactor":1,"baseColorTexture":{"index":1}},"alphaMode":"MASK","alphaCutoff":0.05,"doubleSided":true}],"textures":[{"sampler":0,"source":0,"name":"pumpkinhat_inner"},{"sampler":1,"source":1,"name":"stalkerhat_main"}],"samplers":[{"magFilter":9728,"minFilter":9728,"wrapS":33071,"wrapT":33071},{"magFilter":9728,"minFilter":9728,"wrapS":33071,"wrapT":33071}],"images":[{"mimeType":"image/png","uri":"data:image/png;base64,"},{"mimeType":"image/png","uri":"data:image/png;base64,"}],"meshes":[{"primitives":[{"mode":4,"attributes":{"POSITION":0,"NORMAL":1,"TEXCOORD_0":2},"indices":3,"material":0}]},{"primitives":[{"mode":4,"attributes":{"POSITION":4,"NORMAL":5,"TEXCOORD_0":6},"indices":7,"material":0}]},{"primitives":[{"mode":4,"attributes":{"POSITION":8,"NORMAL":9,"TEXCOORD_0":10},"indices":11,"material":0}]},{"primitives":[{"mode":4,"attributes":{"POSITION":12,"NORMAL":13,"TEXCOORD_0":14},"indices":15,"material":1}]},{"primitives":[{"mode":4,"attributes":{"POSITION":16,"NORMAL":17,"TEXCOORD_0":18},"indices":19,"material":1}]},{"primitives":[{"mode":4,"attributes":{"POSITION":20,"NORMAL":21,"TEXCOORD_0":22},"indices":23,"material":1}]},{"primitives":[{"mode":4,"attributes":{"POSITION":24,"NORMAL":25,"TEXCOORD_0":26},"indices":27,"material":1}]},{"primitives":[{"mode":4,"attributes":{"POSITION":28,"NORMAL":29,"TEXCOORD_0":30},"indices":31,"material":1}]},{"primitives":[{"mode":4,"attributes":{"POSITION":32,"NORMAL":33,"TEXCOORD_0":34},"indices":35,"material":1}]},{"primitives":[{"mode":4,"attributes":{"POSITION":36,"NORMAL":37,"TEXCOORD_0":38},"indices":39,"material":1}]},{"primitives":[{"mode":4,"attributes":{"POSITION":40,"NORMAL":41,"TEXCOORD_0":42},"indices":43,"material":1}]},{"primitives":[{"mode":4,"attributes":{"POSITION":44,"NORMAL":45,"TEXCOORD_0":46},"indices":47,"material":1}]},{"primitives":[{"mode":4,"attributes":{"POSITION":48,"NORMAL":49,"TEXCOORD_0":50},"indices":51,"material":1}]},{"primitives":[{"mode":4,"attributes":{"POSITION":52,"NORMAL":53,"TEXCOORD_0":54},"indices":55,"material":1}]},{"primitives":[{"mode":4,"attributes":{"POSITION":56,"NORMAL":57,"TEXCOORD_0":58},"indices":59,"material":1}]},{"primitives":[{"mode":4,"attributes":{"POSITION":60,"NORMAL":61,"TEXCOORD_0":62},"indices":63,"material":1}]}]}